# xmcd
#
# Track frame offsets:
#	150
#	18073
#	35470
#	60447
#	76941
#	89883
#	105322
#	123312
#	137497
#	157639
#
# Disc length: 2474 seconds
#
# Revision: 1
# Processed by: cddbd v1.5.2PL0 Copyright (c) Steve Scherf et al.
# Submitted via: EasyCDDAExtractor 2010.6.0.0
#
DISCID=6809a80a
DTITLE=Various Artist - Hej czy ty wiesz
DYEAR=1900
DGENRE=
TTITLE0=Classic - Hej czy ty wiesz
TTITLE1=Boys - Bawmy się
TTITLE2=Marvel - Jazda, Jazda
TTITLE3=Mc Makler - Silny kac
TTITLE4=Max X - Panowie juz najwyższy czas
TTITLE5=Tomasz Niecik - Kawalerzy
TTITLE6=Maxi Dance - Znów impreza
TTITLE7=Avocado - Po szklaneczce do pioseneczki
TTITLE8=Akcent - Otwarte serce
TTITLE9=Bayer Full - Wiązanka góralska mix
EXTD=
EXTT0=
EXTT1=
EXTT2=
EXTT3=
EXTT4=
EXTT5=
EXTT6=
EXTT7=
EXTT8=
EXTT9=
PLAYORDER=
